<?xml version="1.0" encoding="utf-8"?>
<!-- Generator: Adobe Illustrator 25.2.0, SVG Export Plug-In . SVG Version: 6.00 Build 0)  -->
<svg version="1.1" id="Layer_1" xmlns="http://www.w3.org/2000/svg" xmlns:xlink="http://www.w3.org/1999/xlink" x="0px" y="0px"
	 viewBox="0 0 205.8 54" style="enable-background:new 0 0 205.8 54;" xml:space="preserve">
<style type="text/css">
	.st0{fill:#FFC000;}
	.st1{fill-rule:evenodd;clip-rule:evenodd;fill:#160C4B;}
	.st2{fill:#160C4B;}
</style>
<g id="logo">
	<path id="dot" class="st0" d="M200.5,10.7c-2.9,0-5.3-2.4-5.3-5.3s2.4-5.3,5.3-5.3c2.9,0,5.3,2.4,5.3,5.3S203.5,10.7,200.5,10.7z"
		/>
	<g id="words">
		<path id="a" class="st1" d="M183.8,17.8l-1.4,6.5c-1.9-4.5-6.1-7.2-11.4-7.2c-11.1,0-18.5,10-18.5,21.2c0,9.5,5.5,15.7,14.6,15.7
			c4.3,0,8-2.1,10.8-5.5l-1.1,4.8h8.5l7.5-35.5H183.8z M169.1,46.4c-4.8,0-7.8-3.2-7.8-8.2c0-6.9,4.4-13.5,11.1-13.5
			c4.9,0,7.9,3.2,7.9,8.3C180.3,39.8,175.9,46.4,169.1,46.4z"/>
		<path id="i_1_" class="st2" d="M139.7,17.8h8.5v35.5h-8.5V17.8z"/>
		<path id="t" class="st2" d="M115.8,7.1h8.5v10.7h9.2v7.5h-9.2v15.9c0,3.5,1.6,5,5.3,5c1.2,0,2.7-0.2,3.9-0.6v7.6
			c-1.3,0.4-3.6,0.9-5.6,0.9c-7,0-12.2-2.8-12.2-12.3V25.2V7.1L115.8,7.1z"/>
		<path id="r" class="st2" d="M97.5,53.3H89V17.8h8.5v5.8c2.6-4.2,6.7-6.5,11.9-6.5c0.6,0,1.4,0,1.8,0.1v9.3c-1-0.4-2.3-0.6-3.7-0.6
			c-6.3,0-10,3.3-10,9.2V53.3L97.5,53.3z"/>
		<path id="e" class="st1" d="M84.7,38.4H58c0.9,5.2,4.3,8.2,9.6,8.2c3.8,0,6-1.4,7.1-3.9H84C81.8,50,75.6,54,67.3,54
			c-10.2,0-17.6-7.6-17.6-18.5c0-10.9,7.5-18.5,17.6-18.5s17.6,7.6,17.6,18.5C84.9,36.5,84.8,37.4,84.7,38.4z M58.1,32.3h18.3
			c-0.9-5-4.2-7.8-9.2-7.8C62.3,24.5,59,27.4,58.1,32.3z"/>
		<path id="n" class="st2" d="M22.5,53.3H14V17.8h8.5v5.1c2.2-3.8,5.8-5.8,10.2-5.8c7.5,0,13.2,5,13.2,15v21.2h-8.5V33.7
			c0-6-2.8-9.2-7.5-9.2c-4.6,0-7.5,3.3-7.5,9.2V53.3L22.5,53.3z"/>
		<path id="i" class="st2" d="M0,17.8h8.5v35.5H0V17.8z"/>
	</g>
</g>
</svg>
